<svg xmlns="http://www.w3.org/2000/svg" viewBox="0 0 64 64" width="256" height="256"><path fill="#f9e3ae" d="M55,57H9c-1.105,0-2-0.895-2-2V9c0-1.105,0.895-2,2-2h46c1.105,0,2,0.895,2,2v46 C57,56.105,56.105,57,55,57z"/><path fill="#f6d397" d="M54,57H10c-1.657,0-3-1.343-3-3V36c0-2.209,1.791-4,4-4h42c2.209,0,4,1.791,4,4v18 C57,55.657,55.657,57,54,57z"/><path fill="#c2cde7" d="M49,51H15c-1.105,0-2-0.895-2-2V15c0-1.105,0.895-2,2-2h34c1.105,0,2,0.895,2,2v34 C51,50.105,50.105,51,49,51z"/><path fill="#72caaf" d="M58.5 5.5L32 32 22 22 18 26 28 36 32 40 36 36 62.5 9.5z"/><path fill="#97e0bb" d="M32,35.085c-0.64,0-1.28-0.244-1.768-0.731L19.939,24.061l2.121-2.121L32,31.879L58.439,5.439 l2.121,2.121L33.768,34.354C33.28,34.841,32.64,35.085,32,35.085z"/><path fill="#8d6c9f" d="M27 48c-.553 0-1 .448-1 1v2c0 .552.447 1 1 1s1-.448 1-1v-2C28 48.448 27.553 48 27 48zM32 48c-.553 0-1 .448-1 1v2c0 .552.447 1 1 1s1-.448 1-1v-2C33 48.448 32.553 48 32 48zM37 48c-.553 0-1 .448-1 1v2c0 .552.447 1 1 1s1-.448 1-1v-2C38 48.448 37.553 48 37 48zM42 48c-.553 0-1 .448-1 1v2c0 .552.447 1 1 1s1-.448 1-1v-2C43 48.448 42.553 48 42 48zM22 48c-.553 0-1 .448-1 1v2c0 .552.447 1 1 1s1-.448 1-1v-2C23 48.448 22.553 48 22 48z"/><path fill="#8d6c9f" d="M63.71,8.29l-4-4c-0.39-0.39-1.03-0.39-1.42,0l-2,2.01C55.9,6.11,55.46,6,55,6H9C7.35,6,6,7.35,6,9 v46c0,1.65,1.35,3,3,3h46c1.65,0,3-1.35,3-3V15.42l5.71-5.71C64.1,9.32,64.1,8.68,63.71,8.29z M56,55c0,0.55-0.45,1-1,1H9 c-0.55,0-1-0.45-1-1V9c0-0.55,0.45-1,1-1h45.58l-4.07,4.07C50.35,12.02,50.18,12,50,12H14c-1.1,0-2,0.9-2,2v36c0,1.1,0.9,2,2,2h3 c0.55,0,1-0.45,1-1s-0.45-1-1-1h-3V14h34.58L32,30.59l-9.29-9.3c-0.39-0.39-1.03-0.39-1.42,0l-4,4c-0.39,0.39-0.39,1.03,0,1.42 l14,14C31.49,40.9,31.74,41,32,41s0.51-0.1,0.71-0.29L50,23.42V50h-3c-0.55,0-1,0.45-1,1s0.45,1,1,1h3c1.1,0,2-0.9,2-2V21.42l4-4 V55z M58,12.59l-2,2l-4,4l-2,2l-18,18L19.41,26L22,23.41l9.29,9.3c0.39,0.39,1.03,0.39,1.42,0L50,15.41l1.93-1.93L56,9.41l1.7-1.7 l1.3-1.3L61.59,9L58,12.59z"/></svg>